<svg width="880" height="216" viewBox="0 0 880 216" fill="none" xmlns="http://www.w3.org/2000/svg" role="img" aria-labelledby="title desc">
  <title id="title">SynapseNetwork logo</title>
  <desc id="desc">SynapseNetwork wordmark with a neural node icon.</desc>
  <rect x="0" y="0" width="880" height="216" rx="30" fill="#F7FAFD"/>
  <g transform="translate(32 34)">
    <line x1="94" y1="73" x2="37" y2="17" stroke="#0EA5E9" stroke-width="8" stroke-linecap="round"/>
    <line x1="101" y1="68" x2="126" y2="22" stroke="#64748B" stroke-width="8" stroke-linecap="round"/>
    <line x1="106" y1="74" x2="160" y2="36" stroke="#64748B" stroke-width="8" stroke-linecap="round"/>
    <line x1="113" y1="90" x2="171" y2="94" stroke="#64748B" stroke-width="8" stroke-linecap="round"/>
    <line x1="100" y1="100" x2="126" y2="162" stroke="#0EA5E9" stroke-width="8" stroke-linecap="round"/>
    <line x1="88" y1="98" x2="38" y2="150" stroke="#64748B" stroke-width="8" stroke-linecap="round"/>
    <line x1="84" y1="86" x2="28" y2="104" stroke="#64748B" stroke-width="8" stroke-linecap="round"/>
    <line x1="101" y1="65" x2="102" y2="2" stroke="#0EA5E9" stroke-width="8" stroke-linecap="round"/>
    <circle cx="94" cy="73" r="25" fill="#111827"/>
    <circle cx="94" cy="73" r="11" fill="#F7FAFD"/>
    <circle cx="37" cy="17" r="12" fill="#F7FAFD" stroke="#0EA5E9" stroke-width="7"/>
    <circle cx="102" cy="2" r="12" fill="#F7FAFD" stroke="#0EA5E9" stroke-width="7"/>
    <circle cx="126" cy="22" r="12" fill="#F7FAFD" stroke="#64748B" stroke-width="7"/>
    <circle cx="160" cy="36" r="12" fill="#F7FAFD" stroke="#64748B" stroke-width="7"/>
    <circle cx="171" cy="94" r="12" fill="#F7FAFD" stroke="#64748B" stroke-width="7"/>
    <circle cx="126" cy="162" r="12" fill="#F7FAFD" stroke="#0EA5E9" stroke-width="7"/>
    <circle cx="38" cy="150" r="12" fill="#F7FAFD" stroke="#64748B" stroke-width="7"/>
    <circle cx="28" cy="104" r="12" fill="#F7FAFD" stroke="#64748B" stroke-width="7"/>
  </g>
  <text x="258" y="133" font-family="Inter, Avenir Next, Helvetica, Arial, sans-serif" font-size="56" font-weight="600" letter-spacing="-2.2" fill="#111827">Synapse</text>
  <text x="510" y="133" font-family="Inter, Avenir Next, Helvetica, Arial, sans-serif" font-size="56" font-weight="500" letter-spacing="-2.2" fill="#0EA5E9">Network</text>
</svg>
